<svg viewBox="0 0 64 43" fill="currentColor" xmlns="http://www.w3.org/2000/svg">
    <path d="M60.6222 17.4035H3.37778C1.51228 17.4035 0 18.7655 0 20.4456V20.7659C0 22.446 1.51228 23.808 3.37778 23.808H60.6222C62.4877 23.808 64 22.446 64 20.7659V20.4456C64 18.7655 62.4877 17.4035 60.6222 17.4035Z" fill="currentColor"/>
    <path d="M60.6222 36.2667H3.37778C1.51228 36.2667 0 37.6277 0 39.3067V39.6267C0 41.3056 1.51228 42.6667 3.37778 42.6667H60.6222C62.4877 42.6667 64 41.3056 64 39.6267V39.3067C64 37.6277 62.4877 36.2667 60.6222 36.2667Z" fill="currentColor"/>
    <path d="M60.6222 0H3.37778C1.51228 0 0 1.36105 0 3.04V3.36C0 5.03895 1.51228 6.4 3.37778 6.4H60.6222C62.4877 6.4 64 5.03895 64 3.36V3.04C64 1.36105 62.4877 0 60.6222 0Z" fill="currentColor"/>
</svg>
