<svg viewBox="0 0 147 147" fill="currentColor" xmlns="http://www.w3.org/2000/svg">
    <path d="M65.3333 8.16666C65.3333 8.16666 65.3333 -5.72205e-06 73.5 -5.72205e-06C81.6667 -5.72205e-06 81.6667 8.16666 81.6667 8.16666V16.3333C81.6667 16.3333 81.6667 24.5 73.5 24.5C65.3333 24.5 65.3333 16.3333 65.3333 16.3333V8.16666ZM138.833 65.3333C138.833 65.3333 147 65.3333 147 73.5C147 81.6667 138.833 81.6667 138.833 81.6667H130.667C130.667 81.6667 122.5 81.6667 122.5 73.5C122.5 65.3333 130.667 65.3333 130.667 65.3333H138.833ZM16.3333 65.3333C16.3333 65.3333 24.5 65.3333 24.5 73.5C24.5 81.6667 16.3333 81.6667 16.3333 81.6667H8.16667C8.16667 81.6667 0 81.6667 0 73.5C0 65.3333 8.16667 65.3333 8.16667 65.3333H16.3333ZM37.2441 29.7838C37.2441 29.7838 43.0179 35.5577 37.2441 41.3315C31.4703 47.1053 25.6964 41.3315 25.6964 41.3315L19.9185 35.5577C19.9185 35.5577 14.1447 29.7838 19.9185 24.0059C25.6964 18.2321 31.4703 24.0059 31.4703 24.0059L37.2441 29.7838ZM122.994 115.53C122.994 115.53 128.768 121.304 122.994 127.077C117.22 132.851 111.446 127.077 111.446 127.077L105.673 121.304C105.673 121.304 99.8988 115.53 105.673 109.756C111.446 103.982 117.22 109.756 117.22 109.756L122.994 115.53ZM121.308 41.3274C121.308 41.3274 115.534 47.1012 109.76 41.3274C103.986 35.5536 109.76 29.7797 109.76 29.7797L115.534 24.0059C115.534 24.0059 121.308 18.2321 127.082 24.0059C132.855 29.7797 127.082 35.5536 127.082 35.5536L121.308 41.3274ZM35.5577 127.077C35.5577 127.077 29.7838 132.851 24.01 127.077C18.2362 121.304 24.01 115.53 24.01 115.53L29.7838 109.756C29.7838 109.756 35.5577 103.982 41.3315 109.756C47.1053 115.53 41.3315 121.304 41.3315 121.304L35.5577 127.077ZM65.3333 130.667C65.3333 130.667 65.3333 122.5 73.5 122.5C81.6667 122.5 81.6667 130.667 81.6667 130.667V138.833C81.6667 138.833 81.6667 147 73.5 147C65.3333 147 65.3333 138.833 65.3333 138.833V130.667ZM114.333 73.5C114.333 50.9477 96.0482 32.6667 73.5 32.6667C50.9478 32.6667 32.6667 50.9477 32.6667 73.5C32.6667 96.0482 50.9478 114.333 73.5 114.333C96.0482 114.333 114.333 96.0482 114.333 73.5Z"/>
</svg>
