<svg viewBox="0 0 187 122" fill="currentColor" xmlns="http://www.w3.org/2000/svg">
<path d="M79.6987 101.039V120H16.9015V101.039H79.6987ZM24.8423 2.02225V120H0.533728V2.02225H24.8423ZM71.5148 50.0723V68.5468H16.9015V50.0723H71.5148ZM79.6177 2.02225V21.064H16.9015V2.02225H79.6177ZM162.267 80.8631H186.495C186.008 88.804 183.821 95.8535 179.931 102.012C176.096 108.17 170.721 112.978 163.807 116.435C156.946 119.892 148.681 121.621 139.012 121.621C131.449 121.621 124.67 120.324 118.674 117.731C112.677 115.084 107.546 111.303 103.278 106.387C99.0646 101.471 95.8505 95.5293 93.6357 88.5609C91.4209 81.5924 90.3135 73.7866 90.3135 65.1436V56.9597C90.3135 48.3166 91.4479 40.5109 93.7167 33.5424C96.0395 26.5199 99.3347 20.5508 103.602 15.6351C107.924 10.7193 113.083 6.93799 119.079 4.29105C125.075 1.64411 131.773 0.320643 139.174 0.320643C149.005 0.320643 157.297 2.10327 164.05 5.66854C170.856 9.2338 176.123 14.1495 179.85 20.4158C183.632 26.682 185.9 33.8125 186.657 41.8073H162.348C162.078 37.0536 161.133 33.0292 159.512 29.7341C157.891 26.3849 155.434 23.873 152.138 22.1984C148.897 20.4698 144.576 19.6055 139.174 19.6055C135.122 19.6055 131.584 20.3617 128.559 21.8743C125.534 23.3868 122.995 25.6826 120.942 28.7617C118.89 31.8408 117.35 35.7302 116.324 40.4298C115.351 45.0755 114.865 50.5314 114.865 56.7976V65.1436C114.865 71.2477 115.324 76.6226 116.243 81.2683C117.161 85.8599 118.566 89.7493 120.456 92.9364C122.401 96.0695 124.886 98.4464 127.911 100.067C130.99 101.633 134.69 102.417 139.012 102.417C144.09 102.417 148.276 101.606 151.571 99.9859C154.866 98.3653 157.378 95.9615 159.107 92.7744C160.889 89.5872 161.943 85.6168 162.267 80.8631Z"/>
</svg>
