<svg width="57" height="35" viewBox="0 0 57 35" fill="currentColor" xmlns="http://www.w3.org/2000/svg">
    <rect width="57" height="35" rx="5"/>
    <path d="M35.0042 25.9422H21.0042C20.739 25.9422 20.4846 26.0476 20.2971 26.2351C20.1096 26.4227 20.0042 26.677 20.0042 26.9422C20.0042 27.2075 20.1096 27.4618 20.2971 27.6493C20.4846 27.8369 20.739 27.9422 21.0042 27.9422H35.0042C35.2694 27.9422 35.5238 27.8369 35.7113 27.6493C35.8988 27.4618 36.0042 27.2075 36.0042 26.9422C36.0042 26.677 35.8988 26.4227 35.7113 26.2351C35.5238 26.0476 35.2694 25.9422 35.0042 25.9422ZM21.0042 23.9422H21.0942L25.2642 23.5622C25.721 23.5167 26.1482 23.3155 26.4742 22.9922L35.4742 13.9922C35.8235 13.6232 36.0123 13.1307 35.9992 12.6228C35.9861 12.1148 35.7721 11.6327 35.4042 11.2822L32.6642 8.54224C32.3066 8.20634 31.838 8.0136 31.3475 8.00069C30.8571 7.98779 30.379 8.15561 30.0042 8.47224L21.0042 17.4722C20.681 17.7982 20.4797 18.2254 20.4342 18.6822L20.0042 22.8522C19.9907 22.9987 20.0097 23.1463 20.0599 23.2846C20.11 23.4229 20.19 23.5484 20.2942 23.6522C20.3876 23.7449 20.4985 23.8182 20.6203 23.868C20.7421 23.9178 20.8726 23.943 21.0042 23.9422ZM31.2742 9.94224L34.0042 12.6722L32.0042 14.6222L29.3242 11.9422L31.2742 9.94224Z" fill="white"/>
</svg>
