<svg viewBox="0 0 91 118" fill="currentColor" xmlns="http://www.w3.org/2000/svg">
<path d="M46.477 75.9461H16.4153V56.9854H46.477C51.1226 56.9854 54.9039 56.2291 57.821 54.7166C60.738 53.15 62.8718 50.9893 64.2222 48.2343C65.5727 45.4793 66.2479 42.3732 66.2479 38.916C66.2479 35.4047 65.5727 32.1366 64.2222 29.1115C62.8718 26.0864 60.738 23.6556 57.821 21.8189C54.9039 19.9823 51.1226 19.064 46.477 19.064H24.8423V118H0.533691V0.0222168H46.477C55.7142 0.0222168 63.628 1.69681 70.2184 5.04599C76.8627 8.34116 81.9405 12.9058 85.4517 18.7398C88.963 24.5739 90.7186 31.2453 90.7186 38.7539C90.7186 46.3706 88.963 52.9609 85.4517 58.5249C81.9405 64.0889 76.8627 68.3834 70.2184 71.4085C63.628 74.4335 55.7142 75.9461 46.477 75.9461Z"/>
</svg>
