<svg viewBox="0 0 146 146" fill="none" xmlns="http://www.w3.org/2000/svg">
<path d="M116.731 87.7072H34.0665C29.2735 87.6984 24.5364 86.679 20.1652 84.7157C15.7941 82.7523 11.8875 79.8893 8.70117 76.3141C5.51484 72.7389 3.12061 68.532 1.67522 63.9689C0.229829 59.4059 -0.234139 54.5894 0.313687 49.8349C0.861513 45.0803 2.40878 40.4949 4.85421 36.3788C7.29964 32.2627 10.5881 28.7087 14.5043 25.9494C18.4205 23.1901 22.8762 21.2878 27.5796 20.3669C32.2831 19.4461 37.1283 19.5275 41.7981 20.6058C44.7885 13.6344 50.0282 7.86198 56.6833 4.20714C63.3384 0.552304 71.0266 -0.774984 78.5243 0.436491C86.022 1.64797 92.8985 5.3286 98.0596 10.8927C103.221 16.4568 106.37 23.5846 107.006 31.1419C111.015 29.7114 115.288 29.1742 119.527 29.568C123.766 29.9618 127.867 31.277 131.543 33.4214C135.218 35.5658 138.38 38.4874 140.804 41.9813C143.229 45.4751 144.859 49.4564 145.579 53.6459C146.3 57.8354 146.093 62.1315 144.974 66.2328C143.855 70.3341 141.851 74.1412 139.102 77.3869C136.353 80.6326 132.926 83.2383 129.061 85.0212C125.197 86.804 120.988 87.7208 116.731 87.7072ZM8.34327 115.431L18.0685 105.721C18.9841 104.806 19.4986 103.566 19.4986 102.273C19.4986 100.98 18.9841 99.7403 18.0685 98.826C17.1528 97.9118 15.911 97.3981 14.616 97.3981C13.3211 97.3981 12.0792 97.9118 11.1636 98.826L1.43835 108.537C0.982588 108.988 0.620837 109.525 0.373969 110.117C0.1271 110.709 0 111.343 0 111.984C0 112.625 0.1271 113.26 0.373969 113.851C0.620837 114.443 0.982588 114.98 1.43835 115.431C1.8904 115.887 2.42821 116.248 3.02076 116.494C3.61332 116.741 4.24889 116.868 4.89081 116.868C5.53273 116.868 6.1683 116.741 6.76086 116.494C7.35341 116.248 7.89122 115.887 8.34327 115.431ZM8.34327 144.564L47.2442 105.721C48.1598 104.806 48.6742 103.566 48.6742 102.273C48.6742 100.98 48.1598 99.7403 47.2442 98.826C46.3285 97.9118 45.0867 97.3981 43.7917 97.3981C42.4968 97.3981 41.2549 97.9118 40.3393 98.826L1.43835 137.669C0.982588 138.121 0.620837 138.658 0.373969 139.249C0.1271 139.841 0 140.475 0 141.116C0 141.757 0.1271 142.392 0.373969 142.984C0.620837 143.575 0.982588 144.112 1.43835 144.564C1.8904 145.019 2.42821 145.38 3.02076 145.627C3.61332 145.873 4.24889 146 4.89081 146C5.53273 146 6.1683 145.873 6.76086 145.627C7.35341 145.38 7.89122 145.019 8.34327 144.564ZM34.0665 145.972C33.4265 145.976 32.7922 145.853 32.1997 145.611C31.6073 145.37 31.0684 145.014 30.614 144.564C30.1583 144.112 29.7965 143.575 29.5497 142.984C29.3028 142.392 29.1757 141.757 29.1757 141.116C29.1757 140.475 29.3028 139.841 29.5497 139.249C29.7965 138.658 30.1583 138.121 30.614 137.669L42.0412 126.55C42.9714 125.755 44.168 125.339 45.3918 125.386C46.6156 125.434 47.7765 125.94 48.6425 126.805C49.5085 127.67 50.0158 128.829 50.0631 130.051C50.1104 131.273 49.6941 132.468 48.8975 133.396L37.519 144.564C37.0646 145.014 36.5257 145.37 35.9333 145.611C35.3408 145.853 34.7065 145.976 34.0665 145.972ZM59.2062 120.869C58.5663 120.873 57.9319 120.751 57.3394 120.509C56.747 120.267 56.2081 119.911 55.7538 119.461C55.298 119.01 54.9362 118.473 54.6894 117.881C54.4425 117.29 54.3154 116.655 54.3154 116.014C54.3154 115.373 54.4425 114.739 54.6894 114.147C54.9362 113.555 55.298 113.018 55.7538 112.567L69.515 98.826C70.4306 97.9118 71.6725 97.3981 72.9674 97.3981C73.6086 97.3981 74.2435 97.5242 74.8359 97.7692C75.4282 98.0142 75.9665 98.3733 76.4199 98.826C76.8733 99.2788 77.2329 99.8162 77.4783 100.408C77.7236 100.999 77.8499 101.633 77.8499 102.273C77.8499 102.914 77.7236 103.548 77.4783 104.139C77.2329 104.731 76.8733 105.268 76.4199 105.721L62.6587 119.461C62.2043 119.911 61.6655 120.267 61.073 120.509C60.4806 120.751 59.8462 120.873 59.2062 120.869ZM66.6946 144.564L105.596 105.721C106.511 104.806 107.026 103.566 107.026 102.273C107.026 100.98 106.511 99.7403 105.596 98.826C104.68 97.9118 103.438 97.3981 102.143 97.3981C100.848 97.3981 99.6063 97.9118 98.6907 98.826L59.7897 137.669C59.334 138.121 58.9722 138.658 58.7254 139.249C58.4785 139.841 58.3514 140.475 58.3514 141.116C58.3514 141.757 58.4785 142.392 58.7254 142.984C58.9722 143.575 59.334 144.112 59.7897 144.564C60.2418 145.019 60.7796 145.38 61.3721 145.627C61.9647 145.873 62.6003 146 63.2422 146C63.8841 146 64.5197 145.873 65.1122 145.627C65.7048 145.38 66.2426 145.019 66.6946 144.564ZM92.4179 145.972C91.7779 145.976 91.1435 145.853 90.5511 145.611C89.9586 145.37 89.4198 145.014 88.9654 144.564C88.5097 144.112 88.1479 143.575 87.901 142.984C87.6542 142.392 87.5271 141.757 87.5271 141.116C87.5271 140.475 87.6542 139.841 87.901 139.249C88.1479 138.658 88.5097 138.121 88.9654 137.669L100.393 126.55C101.323 125.755 102.519 125.339 103.743 125.386C104.967 125.434 106.128 125.94 106.994 126.805C107.86 127.67 108.367 128.829 108.414 130.051C108.462 131.273 108.045 132.468 107.249 133.396L95.8703 144.807C94.9143 145.627 93.6765 146.045 92.4179 145.972ZM117.558 120.869C116.918 120.873 116.283 120.751 115.691 120.509C115.098 120.267 114.56 119.911 114.105 119.461C113.649 119.01 113.288 118.473 113.041 117.881C112.794 117.29 112.667 116.655 112.667 116.014C112.667 115.373 112.794 114.739 113.041 114.147C113.288 113.555 113.649 113.018 114.105 112.567L127.866 98.826C128.782 97.9118 130.024 97.3981 131.319 97.3981C132.614 97.3981 133.856 97.9118 134.771 98.826C135.687 99.7403 136.201 100.98 136.201 102.273C136.201 103.566 135.687 104.806 134.771 105.721L121.01 119.461C120.556 119.911 120.017 120.267 119.424 120.509C118.832 120.751 118.198 120.873 117.558 120.869Z" fill="#B4EDFF"/>
<path d="M116.731 87.7072H34.0665C29.2735 87.6984 24.5364 86.679 20.1653 84.7157C15.7941 82.7523 11.8875 79.8893 8.70119 76.3141C5.51485 72.7389 3.12063 68.532 1.67524 63.9689C0.229847 59.4059 -0.234121 54.5894 0.313705 49.8349C0.861531 45.0803 2.4088 40.4949 4.85423 36.3788C7.29965 32.2627 10.5881 28.7087 14.5043 25.9494C18.4205 23.1901 22.8762 21.2878 27.5796 20.3669C32.2831 19.4461 37.1283 19.5275 41.7981 20.6058C44.7886 13.6344 50.0283 7.86198 56.6834 4.20714C63.3385 0.552304 71.0266 -0.774984 78.5243 0.436491C86.022 1.64797 92.8986 5.3286 98.0596 10.8927C103.221 16.4568 106.37 23.5846 107.006 31.1419C111.015 29.7114 115.288 29.1742 119.527 29.568C123.766 29.9618 127.867 31.277 131.543 33.4214C135.218 35.5658 138.38 38.4874 140.804 41.9813C143.229 45.4751 144.859 49.4564 145.579 53.6459C146.3 57.8354 146.093 62.1315 144.974 66.2328C143.855 70.3341 141.851 74.1412 139.102 77.3869C136.353 80.6326 132.926 83.2383 129.061 85.0212C125.197 86.804 120.988 87.7208 116.731 87.7072Z" fill="#F0F0F0"/>
</svg>
