<svg viewBox="0 0 147 190" fill="currentColor" xmlns="http://www.w3.org/2000/svg">
    <path d="M126 0C120.43 0 115.089 2.2242 111.151 6.1833C107.212 10.1424 105 15.5121 105 21.1111C105 26.7101 107.212 32.0798 111.151 36.0389C115.089 39.998 120.43 42.2222 126 42.2222C131.57 42.2222 136.911 39.998 140.849 36.0389C144.788 32.0798 147 26.7101 147 21.1111C147 15.5121 144.788 10.1424 140.849 6.1833C136.911 2.2242 131.57 0 126 0ZM126 10.5556C128.785 10.5556 131.455 11.6677 133.425 13.6472C135.394 15.6268 136.5 18.3116 136.5 21.1111C136.5 23.9106 135.394 26.5955 133.425 28.575C131.455 30.5546 128.785 31.6667 126 31.6667C123.215 31.6667 120.545 30.5546 118.575 28.575C116.606 26.5955 115.5 23.9106 115.5 21.1111C115.5 18.3116 116.606 15.6268 118.575 13.6472C120.545 11.6677 123.215 10.5556 126 10.5556ZM126 123.5C126 160.233 97.797 190 63 190C28.203 190 0 160.233 0 123.5C0 86.7667 63 0 63 0C63 0 126 86.7667 126 123.5Z"/>
</svg>
