<svg viewBox="0 0 191 152" fill="currentColor" xmlns="http://www.w3.org/2000/svg">
<path d="M23.4115 47.1809V151.708H0.0752119V30.327H21.7099L23.4115 47.1809ZM78.9161 73.1911V74.8927C78.9161 81.267 78.1598 87.1821 76.6473 92.638C75.1888 98.094 73.028 102.848 70.165 106.899C67.302 110.896 63.7367 114.03 59.4692 116.298C55.2557 118.513 50.394 119.621 44.8841 119.621C39.5362 119.621 34.8905 118.54 30.9471 116.379C27.0037 114.219 23.6816 111.194 20.9806 107.304C18.3337 103.361 16.1999 98.7962 14.5793 93.6104C12.9588 88.4245 11.7163 82.8606 10.852 76.9185V72.4619C11.7163 66.0876 12.9588 60.2536 14.5793 54.9597C16.1999 49.6118 18.3337 44.9932 20.9806 41.1038C23.6816 37.1604 26.9767 34.1083 30.8661 31.9475C34.8095 29.7868 39.4281 28.7064 44.722 28.7064C50.286 28.7064 55.1747 29.7598 59.3882 31.8665C63.6557 33.9733 67.221 36.9983 70.084 40.9417C73.001 44.8851 75.1888 49.5848 76.6473 55.0407C78.1598 60.4966 78.9161 66.5468 78.9161 73.1911ZM55.4988 74.8927V73.1911C55.4988 69.4638 55.1747 66.0336 54.5265 62.9005C53.9323 59.7134 52.9599 56.9314 51.6095 54.5545C50.313 52.1777 48.5844 50.3411 46.4236 49.0446C44.3169 47.6941 41.751 47.0189 38.7259 47.0189C35.5388 47.0189 32.8108 47.5321 30.542 48.5584C28.3272 49.5848 26.5176 51.0703 25.1131 53.015C23.7086 54.9597 22.6552 57.2825 21.953 59.9835C21.2507 62.6844 20.8186 65.7365 20.6565 69.1397V80.4027C20.9266 84.4001 21.6829 87.9924 22.9253 91.1795C24.1677 94.3126 26.0854 96.7975 28.6783 98.6341C31.2713 100.471 34.6745 101.389 38.8879 101.389C41.967 101.389 44.56 100.714 46.6667 99.3634C48.7734 97.9589 50.475 96.0412 51.7715 93.6104C53.122 91.1795 54.0673 88.3705 54.6075 85.1834C55.2017 81.9963 55.4988 78.566 55.4988 74.8927ZM173.558 48.0723V67.033H111.976V48.0723H173.558ZM119.187 0.0222455V118H94.8788V0.0222455H119.187ZM190.898 0.0222455V118H166.67V0.0222455H190.898Z"/>
</svg>
