<svg viewBox="0 0 46 46" fill="currentColor" xmlns="http://www.w3.org/2000/svg">
<path d="M38.5133 2.88368L2.1459 39.2511C0.960753 40.4362 0.963086 42.3601 2.15111 43.5481L2.37755 43.7745C3.56557 44.9625 5.48941 44.9649 6.67456 43.7797L43.042 7.41234C44.2271 6.22719 44.2248 4.30335 43.0367 3.11532L42.8103 2.88889C41.6223 1.70086 39.6984 1.69853 38.5133 2.88368Z" fill="white"/>
<path d="M43.042 39.2511L6.67459 2.8837C5.48944 1.69855 3.5656 1.70088 2.37757 2.88891L2.15114 3.11534C0.963113 4.30337 0.96078 6.22721 2.14593 7.41235L38.5133 43.7797C39.6985 44.9649 41.6223 44.9626 42.8103 43.7745L43.0368 43.5481C44.2248 42.3601 44.2271 40.4362 43.042 39.2511Z" fill="white"/>
</svg>
