<svg viewBox="0 0 147 269" fill="none" xmlns="http://www.w3.org/2000/svg">
<g clip-path="url(#clip0_602_824)">
<path d="M85.5573 174.605V116.159C85.5573 112.916 84.2698 109.806 81.978 107.513C79.6863 105.22 76.578 103.932 73.337 103.932C70.096 103.932 66.9877 105.22 64.6959 107.513C62.4042 109.806 61.1167 112.916 61.1167 116.159V174.605C57.4228 176.739 54.3513 179.803 52.2075 183.492C50.0637 187.182 48.9222 191.368 48.8964 195.636C48.8964 202.122 51.4714 208.342 56.0549 212.928C60.6384 217.514 66.8549 220.09 73.337 220.09C79.819 220.09 86.0356 217.514 90.6191 212.928C95.2026 208.342 97.7776 202.122 97.7776 195.636C97.7518 191.368 96.6103 187.182 94.4665 183.492C92.3227 179.803 89.2512 176.739 85.5573 174.605Z" fill="#FFB4B4"/>
<path d="M128.328 146.727V55.0226C128.328 40.4297 122.535 26.4345 112.222 16.1157C101.909 5.797 87.9216 0 73.337 0C58.7524 0 44.7651 5.797 34.4523 16.1157C24.1394 26.4345 18.3457 40.4297 18.3457 55.0226V146.727C9.89955 156.303 4.09839 167.92 1.51605 180.428C-1.06628 192.936 -0.340321 205.902 3.62213 218.043C7.58458 230.184 14.6462 241.08 24.1085 249.652C33.5708 258.225 45.1059 264.177 57.5728 266.921C62.7516 268.102 68.0292 268.798 73.337 268.999C87.5202 269.065 101.418 265.014 113.346 257.336C125.275 249.658 134.722 238.684 140.542 225.742C146.362 212.801 148.306 198.448 146.138 184.424C143.971 170.399 137.784 157.304 128.328 146.727ZM103.888 233.173C94.1646 241.799 81.4151 246.207 68.4438 245.428C55.4725 244.648 43.342 238.745 34.7209 229.016C26.0998 219.288 21.6942 206.531 22.4734 193.552C23.2526 180.573 29.1527 168.436 38.8758 159.81C40.0304 158.678 40.949 157.327 41.5783 155.837C42.2076 154.347 42.5351 152.746 42.5419 151.129V55.0226C42.5419 46.9154 45.7606 39.1403 51.49 33.4077C57.2193 27.675 64.99 24.4545 73.0926 24.4545C81.1951 24.4545 88.9658 27.675 94.6952 33.4077C100.425 39.1403 103.643 46.9154 103.643 55.0226V152.107C103.65 153.725 103.978 155.325 104.607 156.815C105.236 158.305 106.155 159.656 107.309 160.788C112.304 165.616 116.214 171.454 118.777 177.913C121.341 184.371 122.499 191.302 122.175 198.244C121.851 205.185 120.053 211.978 116.9 218.17C113.746 224.362 109.31 229.81 103.888 234.152V233.173Z" fill="#F0F0F0"/>
</g>
</svg>
