<svg viewBox="0 0 305 122" fill="currentColor" xmlns="http://www.w3.org/2000/svg">
<path d="M60.2834 2.02225V120H36.0558V2.02225H60.2834ZM96.5842 2.02225V21.064H0.322176V2.02225H96.5842ZM146.66 120H120.974L121.136 101.039H146.66C153.034 101.039 158.409 99.6078 162.785 96.7448C167.16 93.8277 170.455 89.5872 172.67 84.0233C174.939 78.4593 176.073 71.7339 176.073 63.8471V58.0941C176.073 52.0439 175.425 46.7231 174.129 42.1314C172.886 37.5398 171.023 33.6774 168.538 30.5443C166.053 27.4112 163.001 25.0614 159.381 23.4948C155.762 21.8743 151.603 21.064 146.903 21.064H120.488V2.02225H146.903C154.79 2.02225 162.001 3.37272 168.538 6.07368C175.128 8.72062 180.827 12.529 185.635 17.4987C190.442 22.4685 194.143 28.4106 196.736 35.325C199.383 42.1855 200.706 49.8292 200.706 58.2561V63.8471C200.706 72.2201 199.383 79.8638 196.736 86.7782C194.143 93.6927 190.442 99.6348 185.635 104.605C180.881 109.52 175.182 113.329 168.538 116.03C161.947 118.677 154.655 120 146.66 120ZM134.749 2.02225V120H110.44V2.02225H134.749ZM279.79 89.1281C279.79 87.0213 279.466 85.1307 278.818 83.4561C278.224 81.7275 277.089 80.1609 275.415 78.7564C273.74 77.2979 271.39 75.8664 268.365 74.4619C265.34 73.0574 261.424 71.5989 256.616 70.0863C251.268 68.3577 246.19 66.413 241.382 64.2523C236.629 62.0915 232.415 59.5796 228.742 56.7166C225.123 53.7996 222.26 50.4234 220.153 46.588C218.1 42.7527 217.074 38.2961 217.074 33.2183C217.074 28.3025 218.154 23.846 220.315 19.8486C222.476 15.7971 225.501 12.3399 229.39 9.47688C233.28 6.55985 237.871 4.31806 243.165 2.7515C248.513 1.18495 254.374 0.401672 260.748 0.401672C269.445 0.401672 277.035 1.96823 283.517 5.10134C290 8.23444 295.023 12.529 298.589 17.9849C302.208 23.4408 304.018 29.68 304.018 36.7025H279.871C279.871 33.2453 279.142 30.2202 277.683 27.6273C276.279 24.9804 274.118 22.9006 271.201 21.3881C268.338 19.8756 264.719 19.1193 260.343 19.1193C256.13 19.1193 252.618 19.7675 249.809 21.064C247 22.3064 244.894 24.008 243.489 26.1688C242.085 28.2755 241.382 30.6524 241.382 33.2993C241.382 35.298 241.869 37.1077 242.841 38.7282C243.867 40.3488 245.38 41.8613 247.379 43.2658C249.377 44.6703 251.835 45.9938 254.752 47.2362C257.669 48.4787 261.045 49.6941 264.881 50.8825C271.309 52.8272 276.954 55.015 281.816 57.4459C286.732 59.8767 290.837 62.6047 294.132 65.6298C297.427 68.6548 299.912 72.085 301.587 75.9204C303.261 79.7558 304.099 84.1043 304.099 88.966C304.099 94.0978 303.099 98.6895 301.101 102.741C299.102 106.792 296.212 110.223 292.431 113.032C288.649 115.841 284.139 117.974 278.899 119.433C273.659 120.891 267.798 121.621 261.316 121.621C255.481 121.621 249.728 120.864 244.056 119.352C238.384 117.785 233.226 115.435 228.58 112.302C223.988 109.169 220.315 105.172 217.56 100.31C214.805 95.4483 213.428 89.6953 213.428 83.0509H237.817C237.817 86.7242 238.384 89.8303 239.519 92.3692C240.653 94.9081 242.247 96.9608 244.3 98.5274C246.406 100.094 248.891 101.228 251.754 101.931C254.671 102.633 257.858 102.984 261.316 102.984C265.529 102.984 268.986 102.39 271.687 101.201C274.442 100.013 276.468 98.3653 277.764 96.2586C279.115 94.1519 279.79 91.775 279.79 89.1281Z"/>
</svg>
