<svg viewBox="0 0 42 38" fill="currentColor" xmlns="http://www.w3.org/2000/svg">
    <path d="M26.0327 2.8888C25.527 2.01154 24.7949 1.28211 23.9109 0.774704C23.027 0.267295 22.0226 0 21 0C19.9774 0 18.973 0.267295 18.0891 0.774704C17.2051 1.28211 16.473 2.01154 15.9673 2.8888L0.725524 29.6919C0.241529 30.533 -0.00868165 31.4854 0.000229993 32.4527C0.00914164 33.4199 0.276859 34.3677 0.776271 35.2C1.28302 36.0586 2.0107 36.7699 2.8856 37.2615C3.7605 37.7532 4.75153 38.0079 5.75827 37.9998H36.2417C37.2485 38.0079 38.2395 37.7532 39.1144 37.2615C39.9893 36.7699 40.717 36.0586 41.2237 35.2C41.7231 34.3677 41.9909 33.4199 41.9998 32.4527C42.0087 31.4854 41.7585 30.533 41.2745 29.6919L26.0327 2.8888ZM21 31.0909C20.6539 31.0909 20.3156 30.9896 20.0278 30.7998C19.74 30.61 19.5157 30.3403 19.3833 30.0247C19.2508 29.7091 19.2162 29.3618 19.2837 29.0267C19.3512 28.6917 19.5179 28.3839 19.7626 28.1424C20.0074 27.9008 20.3192 27.7363 20.6586 27.6697C20.9981 27.603 21.3499 27.6372 21.6697 27.7679C21.9894 27.8987 22.2627 28.1201 22.455 28.4041C22.6473 28.6881 22.7499 29.0221 22.7499 29.3637C22.7499 29.8218 22.5655 30.2611 22.2374 30.585C21.9092 30.9089 21.4641 31.0909 21 31.0909ZM22.7499 22.4548C22.7499 22.9129 22.5655 23.3522 22.2374 23.6761C21.9092 24 21.4641 24.182 21 24.182C20.5359 24.182 20.0908 24 19.7626 23.6761C19.4345 23.3522 19.2501 22.9129 19.2501 22.4548V12.0914C19.2501 11.6334 19.4345 11.194 19.7626 10.8701C20.0908 10.5462 20.5359 10.3642 21 10.3642C21.4641 10.3642 21.9092 10.5462 22.2374 10.8701C22.5655 11.194 22.7499 11.6334 22.7499 12.0914V22.4548Z"/>
</svg>
